<svg version="1.2" xmlns="http://www.w3.org/2000/svg" viewBox="0 0 3974 2847" width="1000" height="716">
	<title>logo</title>
	<style>
		.s0 { fill: #fff } 
	</style>
	<g id="&lt;Group&gt;">
		<path id="&lt;Path&gt;" class="s0" d="m3308.1 2223.8c-318.4-263.1-628.6-406.9-906.9-468.7-99.5-22.2-194.8-33.9-284.9-36.8-87-2.8-169.1 2.6-245.4 14.5-97.1 15-185 40.9-261.6 74-306.4 133.1-433.6 386.2-255.6 559.9 0.9 0.7 1.7 1.5 2.4 2.2 8 8 12.9 19 12.9 31.2 0 24.6-19.7 44.3-44.1 44.3h-1154.5c-24.6 0-44.4-19.7-44.4-44.1 0-6.1 1.2-11.9 3.5-17.3q0.4-0.9 0.9-1.8c1-1.9 2.2-3.8 3.2-5.8 0 0 0 0 0.2-0.1 78.6-139.9 160.6-263.6 245-372.6 224.6-290.5 369-477.5 840-636.2 135.5-45.8 271.3-69.3 404.8-75.2 226.2-10.3 446.4 30.2 649.2 99.3l270.1 112.7c507.5 251 842.1 643.4 765.2 720.5z"/>
		<path id="&lt;Path&gt;" class="s0" d="m2349.3 1841.6c0 6.1-1.1 11.9-3.4 17.2-0.7 1.5-1.3 2.8-2.2 4.2-15.6 29.6-31.1 59.2-46.4 88.9-42.2 81.2-84.5 162.8-130.1 246.1-11.5 20.8-23.4 41.8-36 62.9-12.6 21.4-25.7 43-41.2 65.7-7.9 11.5-16.3 23.2-26.6 35.9-10.7 12.7-21.9 26.3-43.3 43.7-11.4 8.7-25.4 19.5-52.6 29.1-7.3 2.4-13.7 4.3-23.7 6-4.6 0.7-9.2 1.3-13.8 1.6-4.6 0.4-10.5 0.4-15.8 0.2-21.1-0.5-45.5-7.6-63.2-17.9-18.2-10.1-30.9-22.3-39.8-32.4-5.4-6-7.9-9.8-11.3-14.6l-4.8-7.1-3.2-5.8c-9.4-16.7-13-27.8-17-39.3l-1.8-5.2-1.9-9.6c-12.6-63.8-26.2-127.6-44.3-189.6-8-31.4-18.3-61.9-27.4-92.7-10.8-30.2-20.8-60.8-32.7-90.2-4.5-11.9-9.1-23.8-14-35.6-0.4-1.3-1-2.5-1.5-3.8-0.3-0.5-0.4-0.9-0.5-1.5-1.2-4.2-2-8.5-2-13.1 0-17.6 10.3-32.6 25-39.7 2.8-1.2 5.5-2.3 8.3-3.1 51-18.8 106.8-34.1 166.6-45q0.9-0.2 1.8-0.4c1.6-0.3 3.5-0.6 5.2-0.9 0.4-0.3 1-0.3 1.7-0.3 1.5-0.1 3-0.3 4.5-0.3 19.8 0 36.6 13.1 42.2 31.1q4.3 12.7 8.5 25.4c20.1 61.3 37.6 123 53.2 184.7 32.5-65.3 63.8-133.1 95.7-200.7l12.6-26.7c0.3-0.7 0.4-1.3 0.7-1.9l2.7-5.9c0-0.2 0-0.3 0.2-0.3 7.4-13.6 21.7-22.8 38.2-22.9h0.4c1.5 0 3.2 0.1 4.6 0.3 57.1 2 120 7.8 188 19.4 0.3-0.1 0.6-0.1 0.7 0 2.4 0.5 4.8 0.8 7.2 1.4 18.7 5 32.5 22.3 32.5 42.7z"/>
		<path id="&lt;Path&gt;" class="s0" d="m3848.4 1323.3c-3.1 97.1-11.1 192.4-22.3 286.7-11.1 94.1-27.1 187.2-44.3 279.4-17.6 92.2-38.8 183.4-61.6 273.9-11.7 45.2-24.1 90.3-36.8 135.2-11 37-21.9 73.1-34.2 110.5-0.2 0.4-0.2 0.7-0.3 1.2-0.8 2.5-1.7 5-2.6 7.7-5 11.3-14.5 20.1-26.4 23.9-1.8 0.6-3.5 1.1-5.2 1.5-0.5 0-0.9 0.2-1.4 0.2h-0.4c-2.9 0.4-6.1 0.6-9.2 0.6-0.2 0-0.2 0-0.3 0h-0.3c-23.8-0.2-53.3-8.1-78.1-12.5-19.9-3.4-39-6.4-54-12.2-0.6-0.2-1.2-0.3-1.6-0.6-2.1-0.9-4-1.8-6-2.7-0.9-0.4-1.8-0.9-2.5-1.3-0.6-0.3-1-0.6-1.5-0.9-11.7-8-19.5-21.6-19.5-36.7 0-0.9 0-2 0.2-2.9 0.1-1.8 0.4-3.5 0.7-5.3 0.2-0.6 0.2-1.4 0.3-2 6-38.2 12.5-78.3 18.2-117.7 6.8-44.3 13-88.8 18.8-133.4 12.4-88.8 22.4-177.9 31.3-266.5 9.2-88.6 15.3-177.2 19.9-265.1 4.6-87.9 6.1-175.3 3.1-261.1-2.4-85.7-9.3-170.2-22.6-249.6-13.2-79.1-34.3-154.2-63.8-211.4-14.8-28.3-31.5-51.5-48.3-68.1-17-16.8-33.6-27.4-53.1-34.7-9.7-3.5-20.5-6.2-32.3-8.3-3.1-0.4-5.9-1-9.2-1.2l-4.6-0.6-7.1-0.6-13.8-1.2-6.4-0.4-4.4-0.2c-23-0.7-47.2 2.9-73.9 11.8-52.9 18-114.3 56.2-171.6 107.4-57.7 51-114.3 111.5-167.2 177.4-93 114.2-178.2 241.1-258.8 372.7 0 0.2-0.1 0.3-0.1 0.5-0.2 0.3-0.3 0.6-0.5 0.7-1 1.5-2.1 3.2-3 4.8-1 1.3-1.9 2.7-3.2 3.9-1.2 1.3-2.6 2.6-4 3.7q-1.8 1.8-4.1 3.1-2 1.6-4.4 2.7c-0.9 0.6-1.9 1-3 1.3q-1.6 0.7-3.1 1.4c-0.2 0-0.3 0.1-0.5 0-1.4 0.4-2.8 0.8-4.3 1.1-2.9 0.8-6.1 1.1-9.3 1.1q-3.4 0-6.7-0.5c0 0-0.2 0.2-0.3 0-2-0.4-4-0.9-6-1.4-0.1 0-0.1 0-0.1 0-3.6-1.8-7-3.5-10.6-5.1-0.1-0.2-0.4-0.2-0.6-0.3-0.3-0.1-0.7-0.3-1-0.4-57.9-27.6-117.9-53-179.6-76-0.2 0-0.2 0-0.3-0.2-0.3-0.1-0.5-0.1-0.8-0.3-0.1 0-0.3 0-0.3-0.1-2.2-0.9-4.4-1.8-6.8-2.6h-0.2c-5.6-2.6-10.5-6.5-14.5-11-6.9-7.7-10.9-17.8-10.9-29 0-6.1 1.2-11.8 3.4-17.1 0.8-1.7 1.5-3.2 2.4-4.7v-0.2c0.3-0.4 0.4-1 0.7-1.4 79.1-151.7 164.8-302.2 269.8-447 58.6-79 122.1-157.2 200-229 38.8-36 81.2-70.5 128.8-102 47.4-31.6 100.6-60.1 160.9-80.2 59.9-20.2 127.2-32 195.6-29.6l12.8 0.6 10.6 0.9 20.4 1.6 10.1 0.8 12.3 1.5c8.2 0.9 16.5 2.2 24.7 3.5 33.3 5.5 66.9 14.6 99.8 27.7 32.7 13.1 64.5 29.7 93.8 49.7 29.2 19.7 55.8 42.6 79.3 67 47.1 48.8 81 103.1 106.7 156.6 51.2 107.4 73 212.5 86.4 313.8 13 101.5 15.2 200.3 12.8 297.2z"/>
		<path id="&lt;Path&gt;" class="s0" d="m1494 1214.3q0 4.5-0.9 9c-0.2 0.4-0.2 0.7-0.3 1.2-0.8 2.5-1.7 5-2.6 7.7-5.3 12.2-16.2 21.6-29.4 24.8l-6.4 1.2c-0.1 0-0.4 0-0.7 0.2l-139.8 25.8c-0.2 0.2-0.3 0.2-0.5 0.2-0.4 0-0.9 0.1-1.3 0.1-2.5 0.5-5.1 0.8-7.7 0.8-0.8 0-1.5 0-2.3-0.2h-0.1c-11.8-0.6-22.2-5.6-29.6-13.5-43.7-48.5-192.9-173.8-503.3-77.9-95.8 29.6-176.3 82.8-250.3 148.7-274.2 244.1-342.8 761-353 862.7-1.1 11-5.3 22-9.7 31.5l-15.1 28.3c-4.1 7.7-15.8 5-16.1-3.7-5.3-162.6-1.2-886.7 483.4-1170.6 415.2-243.4 739.2-26.9 869.3 89.4 1.2 0.9 2.4 1.9 3.4 3 8.1 8 13 19.2 13 31.3z"/>
	</g>
</svg>